<svg width="16" height="16" viewBox="0 0 16 16" fill="none" xmlns="http://www.w3.org/2000/svg">
<path fill-rule="evenodd" clip-rule="evenodd" d="M0.666677 8.00004C0.666677 6.99171 1.49168 6.16671 2.50001 6.16671H13.5C14.5083 6.16671 15.3333 6.99171 15.3333 8.00004C15.3333 9.00837 14.5083 9.83337 13.5 9.83337H2.50001C1.49168 9.83337 0.666677 9.00837 0.666677 8.00004ZM0.66667 13.5C0.66667 12.4917 1.49167 11.6667 2.5 11.6667H6.16667C7.175 11.6667 8 12.4917 8 13.5C8 14.5084 7.175 15.3334 6.16667 15.3334H2.5C1.49167 15.3334 0.66667 14.5084 0.66667 13.5ZM8.91667 4.33338H2.5C1.49167 4.33338 0.666671 3.50838 0.666671 2.50004C0.666671 1.49171 1.49167 0.666708 2.5 0.666708H8.91667C9.925 0.666708 10.75 1.49171 10.75 2.50004C10.75 3.50838 9.925 4.33338 8.91667 4.33338Z" fill="white"/>
</svg>
