<svg width="274" height="274" viewBox="0 0 274 274" fill="none" xmlns="http://www.w3.org/2000/svg">
<path d="M136.813 1.00601C81.7338 1.00601 36.8981 45.8732 36.8981 100.99C36.8981 111.074 38.4702 120.785 41.2668 129.967C17.9122 136.147 0.601595 157.425 0.601595 182.704V219.017C0.601595 249.109 25.0941 273.618 55.1653 273.618H100.525C105.608 273.618 109.729 269.494 109.729 264.408L109.729 137.312C109.729 132.226 105.608 128.102 100.525 128.102H59.9897C56.989 119.623 55.3154 110.518 55.3154 100.99C55.3154 55.8316 91.6857 19.4271 136.813 19.4271C181.939 19.4271 218.319 55.8316 218.319 100.99C218.319 110.518 216.639 119.623 213.635 128.102H173.109C168.026 128.102 163.905 132.226 163.905 137.312V264.408C163.905 269.494 168.026 273.618 173.109 273.618H218.451C248.522 273.618 273.023 249.091 273.023 218.999V182.712C273.023 157.44 255.715 136.166 232.367 129.976C235.163 120.791 236.727 111.077 236.727 100.99C236.727 45.8732 191.891 1.00601 136.813 1.00601ZM55.1653 146.523H91.3207V255.197H55.1653C34.9782 255.197 19.01 239.218 19.01 219.017V182.704C19.01 162.502 34.9782 146.523 55.1653 146.523ZM182.322 146.523H218.451C238.638 146.523 254.615 162.511 254.615 182.712V218.999C254.615 239.2 238.638 255.188 218.451 255.188H182.322V146.523Z" fill="#E20351" stroke="black"/>
</svg>
