<svg width="18" height="20" viewBox="0 0 18 20" fill="none" xmlns="http://www.w3.org/2000/svg">
<path d="M17.3556 5.57761V14.3113C17.3556 14.7621 17.133 15.1565 16.7437 15.3819L9.23405 19.7769C8.90029 19.946 8.45527 19.946 8.06588 19.7769L0.611895 15.3819C0.222507 15.1565 0 14.7621 0 14.3113V5.57761C0 5.12684 0.222507 4.78876 0.611895 4.56337L8.06588 0.168345C8.45527 -0.0570408 8.90029 -0.0570408 9.23405 0.168345L16.7437 4.56337C17.133 4.78876 17.3556 5.12684 17.3556 5.57761ZM15.5755 5.52126L9.01154 1.6897C8.78903 1.52066 8.56652 1.52066 8.34402 1.6897L1.78006 5.52126C1.55755 5.63396 1.39067 5.85934 1.39067 6.14108V14.1986L8.34402 18.2556C8.56652 18.3683 8.78903 18.3683 9.01154 18.2556L15.5755 14.424C15.798 14.3113 15.9093 14.0859 15.9093 13.8042V6.14108C15.9093 5.85934 15.798 5.63396 15.5755 5.52126Z" fill="white"/>
</svg>
